<svg width="50" height="50" fill="none" xmlns="http://www.w3.org/2000/svg"><g clip-path="url(#clip0)"><g filter="url(#filter0_d)"><path d="M49.973 31.291c-.124-2.864-.623-6.04-1.37-9.03-.747-2.865-1.681-5.543-2.802-7.598-4.36-7.66-9.093-6.477-14.76-4.982-1.806.436-3.737.934-5.73 1.121h-.622c-1.993-.187-3.924-.685-5.73-1.12-5.667-1.433-10.4-2.679-14.76 5.043-1.12 2.056-2.117 4.734-2.802 7.598-.747 2.99-1.246 6.166-1.37 9.03-.125 3.177.187 5.48.872 7.1.685 1.495 1.681 2.429 2.99 2.803 1.182.311 2.552.186 3.985-.436 2.429-.997 5.231-3.114 7.971-5.668 1.93-1.868 5.543-2.802 9.155-2.802 3.612 0 7.224.934 9.155 2.802 2.74 2.554 5.542 4.671 7.971 5.668 1.433.56 2.803.747 3.986.436 1.245-.374 2.304-1.246 2.99-2.865.684-1.557.996-3.861.871-7.1zm-2.99 6.228c-.373.872-.871 1.37-1.494 1.557-.685.187-1.557.062-2.553-.312-2.18-.871-4.733-2.802-7.224-5.169-2.367-2.366-6.54-3.55-10.712-3.55-4.173 0-8.345 1.184-10.774 3.426-2.553 2.367-5.107 4.36-7.224 5.169-.997.374-1.868.56-2.553.311-.623-.187-1.121-.685-1.495-1.557-.498-1.183-.747-3.113-.623-5.978.125-2.678.56-5.73 1.308-8.595.685-2.677 1.557-5.169 2.616-7.037 3.425-6.165 7.41-5.169 12.144-3.923 1.93.498 3.923.996 6.103 1.183h.934c2.242-.187 4.235-.685 6.165-1.183 4.733-1.184 8.72-2.242 12.144 3.923 1.06 1.868 1.931 4.297 2.616 7.037.685 2.865 1.183 5.855 1.308 8.595.125 2.865-.125 4.795-.685 6.103z" fill="#fff"/></g><path d="M19.27 19.148c-.622-.561-1.37-.997-2.241-1.06a3.544 3.544 0 00-.997-2.179l-.062-.062a3.527 3.527 0 00-2.554-1.059c-.996 0-1.93.436-2.553 1.059-.56.56-.996 1.37-1.059 2.242-.872.062-1.619.436-2.242.996l-.062.063A3.527 3.527 0 006.441 21.7c0 .996.436 1.93 1.06 2.553.622.623 1.37.997 2.303 1.059.063.872.436 1.681 1.06 2.242a3.527 3.527 0 002.552 1.059c.997 0 1.931-.436 2.554-1.06.56-.622.996-1.37 1.059-2.241.871-.062 1.681-.436 2.241-1.059a3.527 3.527 0 001.06-2.553c0-.997-.437-1.93-1.06-2.553zm-1.556 3.487c-.25.25-.56.374-.935.374h-.871c-.623 0-1.184.498-1.184 1.183v.81c0 .373-.124.685-.373.934-.25.249-.56.373-.935.373-.373 0-.685-.124-.934-.373-.249-.25-.373-.56-.373-.934v-.872c0-.623-.499-1.184-1.184-1.184h-.872c-.373 0-.685-.124-.934-.373a1.262 1.262 0 01-.373-.872c0-.374.124-.685.373-.934l.063-.063c.249-.186.56-.311.871-.311h.872c.623 0 1.184-.498 1.184-1.183v-.872c0-.374.124-.685.373-.934.25-.25.56-.374.934-.374s.685.125.935.374l.062.062c.187.25.311.56.311.872v.872c0 .622.498 1.183 1.184 1.183h.871c.374 0 .686.125.935.374s.373.56.373.934c0 .373-.124.685-.373.934zM35.836 19.459a2.18 2.18 0 100-4.36 2.18 2.18 0 000 4.36zM35.836 28.302a2.18 2.18 0 100-4.36 2.18 2.18 0 000 4.36zM31.415 23.88a2.18 2.18 0 100-4.359 2.18 2.18 0 000 4.36zM40.258 23.88a2.18 2.18 0 100-4.359 2.18 2.18 0 000 4.36z" fill="#fff"/></g><defs><clipPath id="clip0"><path fill="#fff" d="M0 0h50v50H0z"/></clipPath><filter id="filter0_d" x="-4" y="8.58" width="58" height="40.84" filterUnits="userSpaceOnUse" color-interpolation-filters="sRGB"><feFlood flood-opacity="0" result="BackgroundImageFix"/><feColorMatrix in="SourceAlpha" values="0 0 0 0 0 0 0 0 0 0 0 0 0 0 0 0 0 0 127 0" result="hardAlpha"/><feOffset dy="4"/><feGaussianBlur stdDeviation="2"/><feColorMatrix values="0 0 0 0 0 0 0 0 0 0 0 0 0 0 0 0 0 0 0.25 0"/><feBlend in2="BackgroundImageFix" result="effect1_dropShadow"/><feBlend in="SourceGraphic" in2="effect1_dropShadow" result="shape"/></filter></defs></svg>