<svg xmlns="http://www.w3.org/2000/svg" viewBox="0 0 29.963 29.963"><path d="M29.133 9.215a1.602 1.602 0 00-2.178.63l-.518.937c-1.772-5.424-6.874-9.356-12.882-9.356C6.081 1.426 0 7.507 0 14.981s6.081 13.555 13.555 13.555a1.604 1.604 0 100-3.206c-5.706 0-10.349-4.643-10.349-10.35S7.849 4.632 13.555 4.632c4.525 0 8.372 2.924 9.775 6.978l-.876-.483a1.602 1.602 0 00-2.178.629 1.602 1.602 0 00.629 2.178l3.169 1.748c.261.531.801.901 1.434.901.16 0 .311-.031.456-.074.009 0 .016.003.025.003.565 0 1.112-.298 1.406-.829l2.368-4.292a1.6 1.6 0 00-.63-2.176z" fill="#fff"/></svg>