<svg width="59" height="55" fill="none" xmlns="http://www.w3.org/2000/svg"><path d="M49.974.083a6.444 6.444 0 00-2.11.557c-.494.235-.593.308-1.04.76-1.308 1.324-1.98 2.334-2.735 4.1-.485 1.135-1.172 3.422-1.172 3.916 0 .105-.037.391-.078.63a51.21 51.21 0 00-.396 2.896c-.031.287-.068 1.245-.078 2.136l-.026 1.614-.172.365a5.235 5.235 0 01-.443.73c-.146.197-.265.39-.265.421 0 .083.098.156.338.23.474.15.833.489 1.073 1.015.146.317.23.745.464 2.422.192 1.364.52 3.338.63 3.77.286 1.12.854 2.162 1.52 2.777.735.677 2.266 1.453 3.527 1.791.38.104.567.12 1.354.12.984 0 1.25-.036 2.031-.292 1.104-.354 1.864-.838 2.885-1.833 1.22-1.188 1.87-2.427 2.485-4.745.437-1.64.573-2.213.698-2.969.12-.729.177-1.192.349-2.838.093-.901.093-6.245 0-7.083-.037-.329-.105-.917-.146-1.302-.094-.886-.11-.964-.24-1.537-.422-1.849-1.02-3.557-1.578-4.516-.448-.76-1.01-1.395-1.61-1.807-.416-.292-1.489-.776-2.062-.937-.515-.141-.74-.188-1.562-.313-.401-.062-1.35-.104-1.64-.078zm1.906.542c1.016.182 1.584.375 2.532.843.78.386 1.276.818 1.744 1.516.75 1.115 1.422 2.953 1.839 5.02.281 1.381.37 2.386.453 5.043.073 2.317.068 3.078-.036 4.036-.042.385-.1.948-.13 1.25-.24 2.401-.516 3.703-1.287 6.14-.406 1.282-1.167 2.605-1.943 3.386-.958.964-2.349 1.719-3.593 1.953-.615.12-1.605.11-2.146-.02-.855-.199-1.776-.574-2.704-1.105-.87-.495-1.442-1.135-1.848-2.088-.36-.839-.464-1.323-.907-4.334-.297-2.015-.427-2.672-.614-3.067a2.243 2.243 0 00-.88-.98l-.271-.15.24-.37c.432-.672.442-.709.463-2.334.026-2.062.146-3.265.573-5.729.286-1.65.536-2.531 1.099-3.849.713-1.672 1.4-2.74 2.437-3.786.698-.709.969-.907 1.542-1.136.864-.349 2.276-.442 3.437-.24z" fill="#fff"/><path d="M53.411 12.98c-.11.062-.682.635-1.463 1.463-.266.276-.505.505-.532.505-.098 0-.12-.203-.083-.802.058-.985-.104-1.375-.406-.959l-.12.172v1.875c0 1.959.016 2.11.224 2.11.188 0 .219-.11.219-.74 0-.349.026-.666.062-.745.172-.375 1.37.047 2.146.76.318.293.464.319.49.09.036-.313-.625-.959-1.328-1.297-.245-.115-.433-.24-.433-.282 0-.042.344-.443.771-.89.422-.448.776-.85.781-.891.058-.245-.14-.469-.328-.37zM48.4 13.062c-.603.214-1.03.61-1.473 1.36-.292.494-.386.864-.354 1.406.03.516.156.833.442 1.12.25.25.47.312.943.276.969-.073 1.943-.974 2.323-2.14.151-.464.167-.673.063-1.048-.126-.479-.329-.745-.709-.942-.27-.136-.896-.151-1.234-.032zm1.23.62c.49.37.495 1.151.005 1.875-.562.833-1.219 1.203-1.864 1.057-.37-.083-.558-.208-.693-.484-.167-.318-.125-.995.078-1.417.214-.427.708-.911 1.073-1.041.536-.193 1.13-.188 1.401.01zM18.23 1.047c-.996.104-2.131.437-3.1.9-.531.25-1.375.761-2.474 1.485-.729.48-1.745 1.537-2.146 2.224-.062.115-.291.48-.515.813-.63.963-1.235 2.286-1.526 3.349-.078.286-.224.791-.323 1.12-.297.989-.35 1.452-.313 2.833.016.661.052 1.4.078 1.645.042.386.037.448-.041.495-.209.125-.531.532-.73.901-.447.865-.63 1.922-.53 3.058.124 1.406.28 2 .744 2.87.344.635.61.989 1.224 1.609.563.573.854.729 1.448.781.26.02.505.01.651-.026.13-.031.266-.063.302-.068.047-.005.156.255.318.745.265.797.687 1.77 1.026 2.354.484.839 1.286 1.834 1.77 2.198l.204.151v.656c0 .36.02 1.032.041 1.49l.047.833-.25.151c-.322.204-1.125 1-1.317 1.318-.146.24-.177.255-.516.344-.203.052-.5.177-.672.281-.333.203-.844.505-1.693.995-.49.286-.588.323-.833.323-.786 0-1.37.385-1.63 1.068l-.089.224-.328-.026c-.25-.021-.411 0-.682.088-.792.255-1.193.531-1.604 1.115-.412.583-.537.864-.75 1.724-.276 1.109-.505 1.666-.964 2.38-.755 1.15-1.302 2.24-1.646 3.27-.224.652-.786 2.891-.786 3.11 0 .167.01.172.203.172.182 0 .203-.016.235-.156.026-.157.036-.157.354-.157.182 0 .625.016.99.037.619.031.66.036.676.14.01.089.058.115.266.125.23.016.245.006.245-.109v-.125l1.286-.036c.714-.021 1.505-.058 1.76-.089 1.35-.14 1.38-.146 1.38-.266 0-.041-.265-.046-.895-.02-.495.015-1.495.047-2.219.067l-1.317.032.015-.23.016-.229 2.552-.031c2.349-.031 3.062-.057 3.328-.136.099-.026.099-.03 0-.088-.068-.042-.938-.057-3.016-.057H3.568l-.016-.188a.837.837 0 01.042-.328l.052-.14 1.755.03c1.766.037 3.151-.015 3.255-.12.084-.082-.27-.103-2.765-.16-1.245-.032-2.271-.063-2.276-.073-.01-.006 0-.11.015-.23l.026-.213 1.703.031c1.636.026 3.094-.036 3.282-.14.192-.11-.24-.136-2.521-.162l-2.448-.026.015-.26c.01-.146.037-.344.058-.443l.036-.182 1.74-.037c1.89-.042 3.047-.104 3.104-.161.02-.021.02-.052 0-.078-.02-.021-1.11-.042-2.417-.047-2.114-.01-2.38-.021-2.375-.094.016-.307.026-.344.141-.386.062-.026 1.578-.067 3.37-.099 1.802-.03 3.312-.078 3.385-.104.125-.046.125-.052-.078-.093-.255-.058-5.854-.058-6.344-.006-.349.042-.349.037-.349-.088 0-.073.026-.245.052-.386l.058-.255 2.166-.036c1.98-.032 3.271-.094 3.526-.167.068-.026.079-.047.037-.088-.078-.079-1.219-.079-3.818-.016l-1.864.042.036-.172c.016-.1.057-.281.089-.412l.057-.234.625.005c.344.005 1.448.016 2.448.026 1.74.016 2.088-.005 2.12-.135.026-.089-.605-.115-2.922-.136l-2.203-.02.03-.271c.058-.474-.135-.433 1.938-.433h1.844l1.042.521c1.208.604 1.39.651 2.11.542.26-.037.551-.094.65-.125.12-.037.969-.052 2.38-.052 1.339 0 2.209-.016 2.224-.047.089-.136-.677-.214-2.099-.214-.791 0-1.307-.02-1.28-.046.03-.027.327-.152.66-.282.334-.13.678-.276.761-.318.125-.062.213-.067.531-.02.287.041.443.041.615-.005l.224-.058.375.302c.995.818 1.76 1.115 3.291 1.297.36.042.36.042.401.224.105.5.287 3.172.334 4.958L20.427 50h.224c.146 0 .234-.026.25-.073.016-.042.01-.589-.016-1.214a84.176 84.176 0 01-.052-2.322v-1.188l.198.156c.24.193.594.354.886.401.12.016.244.068.28.11.095.114.194 1.578.199 2.927v1.213l.302-.026c.161-.02.422-.047.573-.068.182-.02.317-.01.396.027a.586.586 0 00.296.046l.178-.015v-2.031c0-1.829-.01-2.047-.094-2.209-.047-.099-.089-.182-.089-.187 0-.005.141-.1.313-.203.583-.36.875-.907.812-1.537-.041-.458-.234-.844-.53-1.057l-.23-.162.088-.135c.079-.11.094-.25.094-.787-.005-.593-.015-.677-.14-.953a2.715 2.715 0 00-.407-.578l-.27-.286.385-.193c.208-.104.51-.281.667-.385.4-.276 1.15-1.037 1.359-1.38.094-.157.193-.287.213-.287.021 0 .073.052.115.115.037.067.255.411.474.77.224.36.552.829.734 1.047.183.224.334.427.334.453 0 .13-.75 1.167-1.042 1.433-.302.281-.87.65-1.177.77-.516.193-.557.25-.48.657.25 1.312.319 2.557.25 4.677-.025.89-.067 1.807-.082 2.047l-.037.432.255-.016.256-.015.03-.6c.021-.327.053-1.395.074-2.369.041-1.87-.01-2.76-.214-3.708-.135-.615-.14-.589.214-.735.744-.296 1.474-.916 1.974-1.671.307-.464.422-.506.718-.26.318.254 1.016.588 1.396.676.245.052.693.073 1.589.073 1.244 0 1.25 0 1.64-.146a6.249 6.249 0 002.063-1.297c.172-.166.349-.302.39-.302.11 0 .26.459.573 1.719.495 2.037.568 2.458.672 4.037.094 1.406.177 1.921.386 2.317.218.417.411 1 .573 1.719l.12.547.244.015c.13.01.24.006.24-.005 0-.01-.047-.25-.11-.536-.135-.667-.375-1.37-.588-1.766-.203-.37-.266-.724-.344-1.979-.094-1.52-.156-2-.396-3.073-.234-1.068-.531-2.255-.677-2.698-.068-.208-.073-.26-.015-.333.099-.115.125-1.083.046-1.49-.099-.536-.359-.791-.885-.896a.884.884 0 01-.339-.177 8.615 8.615 0 00-.552-.437c-.437-.323-.62-.516-.864-.932-.422-.714-1.084-.792-2.047-.245l-.37.208-.364-.339c-.5-.458-.933-.593-1.401-.427-.058.021-.157-.114-.339-.442-.14-.26-.297-.505-.349-.547-.088-.084-.64-.151-1.635-.198-.49-.026-.542-.036-.886-.23-.411-.234-.833-.374-1.114-.374h-.193l-.037-.276a5.758 5.758 0 01-.03-.49c0-.213.004-.219.442-.516.875-.588 1.463-1.14 2.078-1.947.943-1.245 2.042-3.422 2.422-4.797.338-1.235.474-3.625.474-8.224 0-3.693-.005-3.766-.443-5.547a34.758 34.758 0 00-.604-2.063c-.75-2.312-1.583-3.729-3.02-5.13-1.61-1.562-2.97-2.38-4.71-2.833-.864-.224-2.463-.318-3.515-.203zm2.364.515c1.333.141 1.99.344 3.078.954.911.515 2.255 1.62 3.062 2.52.516.573 1.193 1.558 1.448 2.089.782 1.646 1.25 3.146 1.724 5.547l.167.843-.01 2.839c-.016 4.318-.105 6.526-.303 7.787-.145.958-.692 2.41-1.333 3.567-1.031 1.86-1.74 2.703-3.125 3.745-1.036.77-1.557.99-2.651 1.104-.682.073-2.599.021-2.953-.083-.136-.037-.464-.11-.73-.156-.26-.052-.489-.105-.5-.125-.01-.016.397-.026.907-.016.917.016 1.48-.047 1.302-.146-.042-.026-.745-.068-1.557-.104l-1.48-.063-.682-.307c-1.359-.62-1.645-.802-2.692-1.703-.271-.23-.829-.833-.829-.89 0-.037.303-.032 2.1.046.963.037 1.713.005 1.801-.078.09-.094-.203-.114-3.135-.213l-.974-.032-.213-.297-.209-.291.224-.016c.125-.01 1.057.005 2.073.037 1.63.046 2.6.026 2.688-.058.088-.088-2.355-.224-3.943-.218h-1.177l-.167-.297c-.198-.36-.208-.49-.042-.443.063.016.49.057.949.083.458.032 1.296.089 1.87.13a35.29 35.29 0 002.124.079c1.078 0 1.578-.058 1.537-.177-.016-.042-.542-.068-1.735-.089a51.134 51.134 0 01-2.338-.094 53.405 53.405 0 00-1.651-.088l-1.026-.037-.104-.26a1.513 1.513 0 01-.1-.27c.011-.006 1.167.01 2.568.04 2.485.053 3.12.037 3.005-.077-.093-.094-1.567-.162-3.635-.167l-2.042-.005-.083-.235a1.714 1.714 0 01-.083-.28c0-.027 1.01-.032 2.49-.006 1.364.026 2.755.047 3.083.047.765.005 1.854-.078 1.76-.13-.182-.105-5.75-.224-6.969-.152l-.442.027-.089-.188a2.054 2.054 0 01-.125-.463l-.036-.277 1.583.032c.87.02 2.078.062 2.677.093 1.938.105 4.214-.036 2.953-.187-.656-.073-7.166-.203-7.442-.146-.063.016-.12.073-.13.13-.022.151-.334.25-.824.26-.328.006-.453-.015-.656-.114-.25-.12-1.01-.797-1.01-.9 0-.053.067-.053 5.171.098 2.027.057 2.865.063 3.594.021.521-.031.964-.078.99-.099.052-.052-5.042-.23-8.464-.297l-1.604-.031-.229-.35c-.13-.187-.25-.41-.27-.494l-.037-.15.328.03c.182.021.427.037.552.037.219 0 .23.01.36.26.16.318.338.417.744.417.37 0 .615-.14.755-.432.084-.183.1-.193.35-.193.905 0 3.244.146 5.494.338.943.084 2.12.1 2.292.032.14-.058-.459-.141-1.719-.245-.542-.042-1.234-.104-1.537-.13-1.062-.094-2.843-.204-3.364-.204-.287 0-.74-.015-.995-.03l-.474-.037-.057-.203c-.078-.26-.292-.38-.401-.224-.042.057-.068.125-.057.156.114.302.13.287-.323.287-.256 0-.433-.021-.454-.058-.057-.094-.083-.745-.036-.812.047-.068.25-.063 3.297.088 1.52.078 4.828.125 5.135.078l.256-.041-.235-.047c-.39-.068-1.661-.151-3.203-.198-1.984-.063-4.14-.156-4.281-.182-.1-.027-.104-.042-.063-.204a1.66 1.66 0 00.037-.406c-.016-.198-.005-.224.088-.213.88.083 8.11.177 8.183.104.02-.021.026-.047.01-.063-.083-.083-1.078-.14-3.302-.182-3.057-.057-4.625-.104-4.86-.151-.166-.031-.187-.057-.239-.307a3.05 3.05 0 00-.156-.48c-.052-.114-.078-.223-.063-.244.037-.037 1.568.041 3.266.166 1.015.073 4.802.11 5.041.047.167-.047.141-.11-.052-.146-.093-.015-1.083-.052-2.203-.083a106.296 106.296 0 01-2.734-.104 213.489 213.489 0 00-2.875-.188l-.656-.03-.245-.365-.245-.37.667.036c.495.026.693.058.76.12.084.073.104.073.219-.005.14-.089-.078-.094 3.078.125 1.401.099 2.76.208 2.958.234.11.016.193.005.193-.02 0-.063-.328-.162-.52-.162-.074 0-.412-.047-.756-.104-.745-.12-1.333-.177-2.864-.287a110.99 110.99 0 01-1.568-.109l-.427-.031-.157-.318c-.088-.177-.15-.333-.135-.344.01-.015.23.005.48.037.515.067 1.525.14 3.108.218a44.12 44.12 0 011.563.105c.26.02.599.026.755.005.282-.031.287-.031.13-.094-.28-.11-1.484-.23-3.307-.333-.99-.058-2.083-.13-2.437-.167-.61-.068-.646-.078-.802-.234-.094-.089-.157-.172-.141-.188.031-.031 2.73.058 3.98.13 1.088.063 1.478.052 1.5-.026.03-.13-.866-.224-2.704-.291-.719-.026-1.458-.073-1.64-.105a13.709 13.709 0 00-1.09-.083c-.546-.02-.832-.057-1.03-.13a1.913 1.913 0 00-.375-.099c-.089 0-.105-.036-.105-.266v-.265l.51.031c.277.016 1.011.052 1.626.083 1.156.053 1.979.104 3.4.214.803.062.949.052.834-.063-.11-.109-.672-.203-1.708-.28l-1.771-.136a44.15 44.15 0 00-1.823-.084l-1.094-.02-.015-.292-.016-.292.276.037c1 .125 5.068.078 6.255-.073.37-.047.448-.073.38-.146-.02-.02-1.51-.026-3.302-.02-1.796.01-3.348.004-3.453-.017-.187-.036-.187-.036-.218-.354-.016-.177-.016-.333.005-.354.02-.016 1.661-.005 3.646.021 3.468.042 4.12.026 4.161-.099.042-.12-.49-.14-3.838-.156-1.875-.005-3.537-.016-3.683-.016l-.276-.005v-.583l4.625.01c2.542.01 4.646.01 4.672 0 .209-.042-.49-.12-1.797-.188-1.75-.098-4.703-.12-6.349-.052l-1.114.047.031-.312a2.42 2.42 0 01.068-.396c.03-.083.25-.088 2.802-.063 1.52.01 3.354.058 4.068.1.718.046 1.546.093 1.848.114a8.72 8.72 0 011.063.13c.281.052.562.1.625.1.104-.006.104-.006.01-.079-.182-.135-1.5-.37-2.791-.49-1.01-.093-3.865-.171-5.693-.15-1.531.01-1.807.005-1.807-.058 0-.042.036-.198.083-.344l.089-.27.312-.037c.484-.047 2.255-.036 3.292.026.911.052 1.838.12 3.828.276 1.15.094 2.448.13 2.448.078 0-.12-.558-.229-1.433-.28-.286-.022-1.046-.079-1.692-.131-2.87-.245-4.563-.318-5.709-.25-.5.031-.921.042-.937.026-.042-.042.14-.677.208-.74.084-.078 4.297 0 5.266.1.432.041 1.25.135 1.823.208 1.625.203 2.198.25 2.479.213.27-.036.338-.11.14-.15a13.84 13.84 0 00-1.421-.214 65.552 65.552 0 01-1.51-.183c-1.756-.229-2.475-.27-4.62-.265-1.297 0-2.073-.016-2.073-.047 0-.084.354-.932.588-1.406l.219-.443 1.458.015c1.99.021 3.281.094 4.271.25 1.302.204 2.182.22 1.63.027-.229-.084-1.812-.35-2.463-.417-.651-.068-1.49-.104-3.021-.136-1.23-.026-1.64-.057-1.64-.12 0-.02.062-.124.135-.234.093-.14.161-.192.218-.166.157.057 2.021.125 3.97.14 1.562.01 2.015 0 2.265-.057l.312-.078-.234-.042c-.13-.026-1.578-.062-3.219-.088-1.64-.026-3-.058-3.015-.079-.021-.015.057-.166.171-.328l.209-.297 3.073-.015c3.046-.021 3.562-.042 3.599-.151.036-.115-.73-.136-3.589-.094-2.23.026-2.854.02-2.854-.026 0-.083.265-.469.432-.62.125-.12.162-.125.828-.11 1.032.027 4.922-.067 5-.114.052-.036.052-.057 0-.11-.052-.051-.635-.072-2.692-.082-2.094-.016-2.63-.032-2.63-.089 0-.036.109-.151.244-.255.214-.167.276-.188.557-.193.178 0 1.313-.016 2.521-.026 1.214-.01 2.23-.036 2.26-.052.214-.13-.702-.224-2.327-.234a38.075 38.075 0 01-1.641-.042l-.547-.031.438-.282.432-.276 1.234.032c.677.02 1.61.057 2.073.088.808.052 1.058.042 1.058-.052 0-.052-.323-.088-1.38-.161a13.864 13.864 0 01-1.063-.105 4.406 4.406 0 00-.6-.057c-.176 0-.421-.02-.551-.036l-.235-.037.292-.172.292-.166h.906c.89 0 1.99.104 2.182.208.14.073.26.063.26-.026 0-.104-.124-.161-.52-.234-.469-.094-.531-.136-.255-.183.291-.047.567-.161.567-.229 0-.088-.265-.068-1.12.073-.802.13-1.338.167-1.244.083.026-.026.27-.114.541-.203 1.334-.422 2.375-.505 4.084-.323zM9.01 16.38c.146.073.26.156.26.188 0 .03-.036.041-.082.026-.047-.016-.365-.032-.714-.032l-.635-.005.171-.15c.146-.136.209-.157.454-.157.208 0 .364.036.546.13zm.386.49c.333.036.375.052.541.244.094.11.214.271.256.355l.078.15-1.448-.03c-.797-.021-1.453-.047-1.469-.058-.031-.036.083-.349.198-.541l.104-.167.688.005c.38 0 .854.016 1.052.042zm-1.432.974c.01.01-.01.057-.047.099a1.083 1.083 0 00-.13.328l-.063.244-.328.016-.323.016.031-.198c.021-.11.063-.287.089-.396l.052-.198.349.031c.192.021.36.047.37.058zm.859.447c.114.13.172.235.14.266-.025.026-.218.031-.447.01l-.401-.041.03-.162c.074-.359.402-.395.678-.073zm-1.23.49c.095.021.178.078.214.156.068.151.193.162.266.021.052-.099.099-.104.588-.093l.532.015.172.339c.093.187.182.421.197.52l.032.183-1.245-.016c-.682-.01-1.25-.031-1.26-.041-.042-.037-.073-.844-.037-.98.026-.114.063-.135.208-.135.094 0 .245.015.334.031zm1.496 1.417l.52.036v.365l-.229-.016c-.297-.026-.5.068-.599.266l-.078.166H7.214l-.068-.39c-.031-.214-.052-.417-.042-.443.021-.057 1.005-.047 1.985.016zm-.584 1.083l.193.037v.869H7.562l-.114-.27a2.589 2.589 0 01-.146-.47l-.026-.197h.516c.286 0 .604.015.713.031zM10 22.541c0 .1-.14.167-.339.167-.197 0-.338-.067-.338-.166 0-.021.151-.042.338-.042.188 0 .339.02.339.041zm4.99 8.49c.01.037-.037.063-.115.063-.11 0-.135-.026-.135-.136 0-.13.005-.135.114-.062a.409.409 0 01.136.135zm.843.453c.193.1.37.198.386.224.026.042-1.375.13-1.412.094a1.124 1.124 0 01-.047-.255l-.036-.245h.375c.323 0 .422.026.734.182zm1.589.776l.469.235h-1.495c-.828.005-1.516.01-1.537.015-.026.01-.046-.093-.057-.234l-.015-.245h2.166l.469.23zm7.281.662c.021.24.047 1.27.057 2.286.01 1.016.021 1.88.026 1.912.01.104.204.078.26-.032.032-.057.074-.265.09-.468.02-.203.052-.37.072-.37.026 0 .198.166.386.37.218.24.343.416.343.494 0 .068-.072.245-.161.396-.563.953-1.724 1.808-2.703 1.99-.77.146-1.818.203-2.401.135-1.177-.135-2.115-.39-2.99-.807-.682-.333-1.645-.912-1.61-.974.022-.031.147-.036.319-.016.427.053 1.375.042 1.432-.015.094-.094-.193-.146-1.313-.245-.823-.068-.864-.078-.979-.214-.068-.072-.11-.161-.099-.197.01-.037.38-.068 1.188-.084.734-.015 1.088-.041.958-.062-.37-.073-1.276-.146-1.74-.146-.244 0-.473-.021-.505-.042-.088-.057-.39-.687-.359-.74.02-.03.417-.036 1.036-.015.693.02 1.016.016 1.042-.026.057-.094-.474-.177-1.401-.214l-.885-.03.01-.152c.026-.318 0-.307.813-.276.75.031 1.135 0 1.13-.094-.006-.093-.271-.135-1.068-.172l-.781-.036-.016-.162-.015-.166.484-.026c.265-.016 1.083 0 1.812.031.73.031 1.459.036 1.615.016.588-.073.537-.235-.078-.245-.547-.005-2.797-.094-3.344-.13l-.484-.032v-.177c0-.093.015-.182.041-.192.021-.016 1.365 0 2.985.03 2.39.043 2.984.043 3.114-.015.193-.078.209-.146.047-.177-.187-.041-4.333-.14-5.291-.13l-.87.01-.016-.172-.02-.171 2.843.03c2.839.032 3.287.017 3.031-.13-.161-.088-1.463-.14-3.77-.14l-2.151-.005.015-.162.016-.161 2.135.005c1.177.005 2.219.031 2.318.057.317.084 1.349.157 2.302.157 1.12 0 1.922-.12 2.562-.386.23-.093.448-.172.474-.161.032.005.073.203.094.448zm.964.614c.37.115 1.026.552 1.323.886.37.416.713.99 1.224 2.036.927 1.901 1.052 2.162 1.161 2.448.13.339.495 1.031.61 1.156.104.115.218.12.302.01.052-.077.098-.067.458.105.468.224.625.23 1.166.057.443-.14.662-.27 1.125-.672.391-.338.433-.416.297-.552-.203-.203-.187-.333.078-.62.136-.145.35-.328.474-.406.26-.161.329-.302.214-.416-.104-.105-.224-.063-.646.244-.193.146-.37.26-.396.26-.026 0-.198-.135-.38-.306-.578-.532-1.318-.834-1.875-.766l-.265.031-.198-.484c-.11-.26-.276-.636-.375-.828-.23-.464-.224-.51.041-.51.318 0 .5.109.98.593.317.318.484.536.624.818.209.427.328.5.412.26.068-.187.02-.38-.167-.714l-.13-.229.114-.078c.261-.166.75-.36.985-.38.333-.031.453.057.797.589.224.338.38.515.77.828.271.218.506.432.527.474.036.104.317.224.625.26.38.052.526.23.567.688.021.192.037.479.037.625 0 .307-.047.333-.313.198-.14-.073-.172-.073-.349.02-.109.058-.328.235-.484.396-.427.443-1.234 1.031-1.646 1.193-.318.13-.458.15-1.265.193-1.115.057-1.771.005-2.271-.183-.521-.198-.797-.396-1.313-.937a8.187 8.187 0 01-1.192-1.532c-.651-1.067-1.053-1.614-1.563-2.145l-.542-.558V34.51c0-1.213-.036-1.13.459-.974zm-11.24.766c0 .135-.026.172-.135.198-.157.041-.141.156.026.177.099.016.114.047.099.208l-.016.193-.531.016c-.39.01-.537-.006-.537-.047 0-.037.224-.287.5-.558.526-.52.594-.541.594-.187zm14.214-.083a.443.443 0 01.224.161c.14.193 1.14 2.495 1.109 2.552-.02.026-.094.047-.172.047-.078 0-.265.063-.422.13-.156.073-.302.115-.323.094-.02-.02-.182-.36-.364-.745-.407-.875-.693-1.385-1.063-1.9a6.8 6.8 0 01-.286-.417c0-.032 1.146.036 1.297.078zm-14.51 1.333c.051.099.077.208.062.234-.021.026-.26.047-.547.047-.417 0-.516-.015-.542-.083-.041-.11-.041-.307.005-.35.016-.02.235-.036.485-.036h.448l.088.188zm-1.641.24c-.016.036-.105.072-.204.083-.166.01-.171.005-.078-.068.125-.094.308-.104.282-.016zm2.093.624c.1.193.167.36.157.376-.047.046-1.256.046-1.297 0-.026-.026-.068-.157-.1-.287-.036-.135-.072-.276-.093-.323-.037-.099.162-.13.76-.12l.391.006.182.349zm-1.718.021c.057.188.088.365.072.391-.041.073-.166.057-.312-.037-.12-.078-.135-.078-.224 0-.078.068-.234.084-1.01.084-.506 0-.922-.016-.922-.042 0-.02.276-.192.614-.385l.61-.354h1.062l.11.343zm.177.73c.073.192.036.28-.12.28-.12 0-.156-.025-.177-.135-.016-.099.005-.145.088-.177.157-.062.172-.062.209.032zm1.896.046c.12.266.093.287-.35.287a9.92 9.92 0 01-.723-.031c-.287-.032-.318-.047-.339-.172-.016-.073-.016-.151 0-.172.01-.026.323-.042.688-.042.661 0 .666 0 .723.13zm-2.646.078v.157H10.427l-.083-.13a.575.575 0 01-.084-.157c0-.015.459-.026 1.016-.026h1.016v.157zm-2.943.105c.036.062-.099.062-.287 0-.114-.037-.109-.042.063-.047.104-.005.208.015.224.047zm-.276.291c.177.016.995.047 1.812.063l1.485.036.042.282c.02.156.02.302 0 .323-.027.015-.292.02-.6.01l-.562-.031-.13-.22c-.14-.25-.26-.317-.375-.223-.052.042-.068.114-.042.234l.031.172h-1.49c-.817 0-1.484-.01-1.484-.026 0-.088.23-.458.38-.614l.172-.188.214.073c.12.042.365.088.547.11zm4.135.35c.063.343.047.4-.114.4-.14 0-.193-.093-.25-.458l-.031-.219h.171c.172 0 .178.006.224.276zm1.954-.188c.046.047.166.594.135.625-.01.01-.38 0-.823-.021l-.802-.042-.016-.333-.015-.333.734.026c.406.015.755.047.787.078zm1.244.833c1.396.828 2.448 1.188 4.047 1.37l.526.062-.203.402c-.167.322-.213.484-.26.89-.032.266-.047.563-.032.651.016.094.146.323.292.521.146.193.266.37.266.39 0 .073-.412.365-.443.313-.016-.031-.151-.052-.292-.052-.823 0-1.922-.213-2.52-.49-.407-.187-.86-.473-.86-.546 0-.026.11-.058.24-.073.234-.026.385-.104.317-.172-.015-.021-.26-.047-.53-.063l-.5-.026-.25-.224c-.246-.218-.438-.52-.392-.604.016-.02.13-.042.256-.042.125 0 .349-.026.494-.057.464-.099.287-.203-.349-.203h-.38l-.01-.745c-.026-1.526-.026-1.599.057-1.599.021 0 .255.13.526.297zm-5.843-.057c.291.026.333.047.38.161.156.417-.01.49-1.052.453-1-.036-1.037-.041-1.037-.197 0-.084-.073-.188-.219-.313l-.224-.188.912.032c.5.01 1.057.036 1.24.052zm-2.829.146c.23.073.5.187.6.25l.182.12-1.433.026c-.786.015-1.437.036-1.442.041-.063.047.005.167.104.188.062.015.885.036 1.828.052l1.708.031.203.219c.339.38.355.375-.927.338a39.825 39.825 0 00-2.36.01c-.671.022-1.233.032-1.25.022-.062-.052.22-.448.574-.797.338-.344.443-.412.781-.537.474-.172.807-.161 1.432.037zm3.829-.073c0 .026-.021.052-.053.052a.056.056 0 01-.052-.052c0-.032.026-.052.052-.052.032 0 .053.02.053.052zm3.77.24c.016.135.032.603.032 1.041v.802h-.417c-.318 0-.417.016-.417.073 0 .089.162.135.485.135.161 0 .244.021.244.063 0 .036-.161.214-.354.385l-.354.318-.724.042c-.4.02-.77.057-.823.088-.161.084-.042.146.292.146.396 0 .354.047-.224.26-1.13.417-1.625.537-2.24.542-.468.005-.51-.005-.859-.182-.38-.198-.646-.386-.599-.427.016-.01.615 0 1.338.031 1.011.042 1.36.042 1.521-.01.12-.032.214-.078.214-.104 0-.053-.807-.1-2.37-.141l-1.198-.031-.911-.417c-.5-.23-.933-.438-.964-.464-.067-.062.76-.057 2 .01.985.058 1.026.063 1.245.204.338.224 1.125.52 1.474.557.292.032.588-.01 1.088-.15.1-.027.422-.173.72-.313.577-.287.655-.37.718-.771.02-.125.078-.26.13-.302.052-.047.078-.1.052-.115-.026-.015-.057-.177-.062-.364-.021-.318-.016-.334.104-.365.213-.052.177-.14-.068-.172-.187-.026-.276-.078-.469-.281l-.234-.25.61-.026c.333-.021.692-.037.796-.042.188-.01.188-.01.224.23zm-5.02.593c0 .063-.235.125-.308.078-.114-.068-.052-.13.125-.13.1 0 .182.02.182.052zm12.88.526c.135.068.557.469.557.526 0 .021-.13.042-.287.042-.213 0-.328-.031-.473-.13-.391-.266-.792-.214-1.073.135-.151.188-.183.203-.417.203-.292 0-.349-.073-.25-.317.115-.277.354-.412.734-.417.183 0 .438-.021.568-.042.349-.062.516-.062.64 0zm-13.282.526c.021.146.027.271.021.276-.047.032-4.453-.062-4.5-.093-.036-.027-.192 0-.349.046-.375.12-.468.079-.432-.177.02-.104.073-.224.125-.255.068-.052.667-.068 2.599-.068H9.88l.031.271zm12.88.203c.047.037.11.146.152.24.125.292-.016.515-.355.573-.208.031-.364-.042-.484-.224-.073-.11-.078-.162-.026-.334.078-.26.24-.38.464-.343a.687.687 0 01.25.088zm1.24.318c.016.068.032.313.032.552 0 .375-.021.469-.157.74-.083.172-.156.333-.156.364 0 .032.125.11.276.177.354.157.537.37.61.735.13.625-.146 1.083-.87 1.453a2.736 2.736 0 01-2.006.156c-.349-.104-.765-.51-.864-.844-.1-.328.026-.724.333-1.052.14-.15.23-.291.23-.37 0-.067-.074-.349-.157-.62a5.062 5.062 0 01-.193-.874l-.03-.375h.312c.307 0 .317.005.343.156a1 1 0 00.203.339c.146.15.22.187.464.213.495.057.88-.224.88-.635 0-.089.016-.178.037-.193.015-.02.177-.037.36-.037.29 0 .322.01.353.115zm-17.614.302c.479.162 1.166.458 1.13.49-.01.01-.708.03-1.542.047l-1.526.03v-.119c0-.146.208-.344.547-.52.23-.12.302-.136.599-.11.188.015.542.099.792.182zM3.604 44.22l-.146.755-.177.057c-.234.078-.255.172-.052.214.162.03.167.036.14.26-.01.125-.036.245-.051.26-.032.032-1.042.115-1.073.089-.026-.02.672-1.344.906-1.713.25-.391.563-.782.583-.724.01.026-.052.385-.13.802zm-.75 1.875h.432l-.036.4c-.02.225-.042.417-.052.428-.016.015-.323.02-.688.02-.765-.005-.718.053-.468-.604.15-.39.156-.4.265-.322.078.052.245.078.547.078zm20.453.067c.177.1.209.146.224.308.021.265-.093.317-.432.208-.245-.083-.26-.099-.276-.286-.031-.355.13-.433.484-.23zm-.026.948c.25.13.26.14.26.36 0 .197-.015.234-.124.26-.162.042-.282-.005-.459-.167-.114-.104-.145-.182-.145-.359 0-.27.083-.292.468-.094zm-20.479.11l.385.03-.036.24c-.02.136-.042.25-.042.25-.005.006-.349.027-.76.047l-.75.037.036-.209c.016-.12.052-.27.079-.338.052-.136.083-.136 1.088-.057zm-.354.828h.651v.26c-.005.464.036.443-.912.443-.947 0-.885.036-.744-.474.083-.302.093-.313.218-.271.073.02.428.042.787.042zm20.87 0c.24.099.276.156.276.4 0 .188-.01.199-.157.199-.192 0-.463-.11-.588-.23a.466.466 0 01-.089-.27c0-.167.01-.177.183-.177.104 0 .27.036.375.078zm.135.896c.12.062.14.099.14.302v.234h-.228c-.256 0-.5-.078-.563-.172-.052-.083.01-.416.083-.463.073-.053.38.005.568.099zm-21.068.067h.688v.417H1.198v-.125a.85.85 0 01.047-.255c.047-.12.067-.125.25-.084.11.026.51.047.89.047z" fill="#fff"/><path d="M10.823 8.328c-.646.02-1 .057-1.036.094-.053.052-.037.073.062.109.068.026 1.12.062 2.339.078 1.218.016 2.458.057 2.76.083.302.032.807.084 1.12.115.317.031.838.089 1.161.13.688.084 1.24.094 1.287.021.052-.083-.209-.156-.938-.266-2.031-.296-4.646-.437-6.755-.364zM18.724 12.682c-1.427.162-1.959.25-2.089.349-.307.245-.047.307.771.198 1.458-.193 3.078-.26 3.807-.151.448.068.735.01.912-.177.156-.167.104-.323-.089-.26-.073.02-.265.036-.422.03-.156 0-.729-.015-1.276-.03a11.614 11.614 0 00-1.614.041zM26.198 12.787a9.47 9.47 0 00-.787.124.886.886 0 01-.437 0c-.151-.041-.214-.041-.266.016-.062.063-.057.089.01.193.141.198.365.26.725.208.172-.026.479-.073.677-.099.203-.031.88-.067 1.51-.083.917-.026 1.162-.052 1.24-.115.11-.099.11-.135.005-.24-.068-.072-.24-.083-1.104-.077-.563.005-1.271.036-1.573.072zM19.323 13.995c-.948.052-2.771.396-3.089.578a.937.937 0 00-.255.26c-.094.152-.104.23-.078.547.057.672.193.912.682 1.235 1.209.781 2.495.88 3.714.286.682-.333 1.219-1.104 1.255-1.807.016-.219 0-.412-.036-.48-.115-.202-.391-.338-.97-.468-.697-.151-.853-.172-1.223-.151zm1.318.599c.5.13.536.182.453.65-.11.647-.427 1.063-1.016 1.36-.682.339-1.49.401-2.281.172-.854-.25-1.344-.604-1.438-1.052-.078-.349-.073-.75.01-.812.11-.084 1.72-.391 2.287-.433.74-.057 1.5-.015 1.985.115z" fill="#fff"/><path d="M19.255 15.042c-.12.13-.11.302.016.427.125.125.25.13.406.02.151-.104.162-.41.016-.489-.157-.078-.344-.062-.438.042zM25.849 14.057c-.734.198-1.172.51-1.417 1.006-.182.354-.192.479-.088.828.182.588.479.937 1.041 1.198.422.198.85.276 1.334.24.875-.069 1.99-.876 2.187-1.6.084-.291.063-.786-.047-1.015-.12-.266-.458-.573-.718-.657-.11-.03-.584-.067-1.058-.078-.724-.015-.916-.005-1.234.078zm2.328.422c.255.14.469.453.469.688 0 .245-.214.729-.433.963-.244.266-.843.646-1.208.771-.49.162-1.27.021-1.875-.344-.36-.213-.547-.536-.547-.947 0-.641.443-1 1.537-1.256.057-.015.49-.02.963-.015.813.01.875.015 1.094.14z" fill="#fff"/><path d="M26.354 14.995c-.12.229-.026.421.208.421.073 0 .162-.026.198-.062.037-.036.063-.125.063-.198 0-.073-.026-.161-.063-.198-.099-.099-.344-.078-.406.037zM23.432 15.791c-.093.178-.02 2.1.104 2.88.146.87.328 1.558.547 2.058.203.458.203.536 0 .776-.27.328.078.448.375.135.266-.286.271-.442.021-.979-.453-.979-.73-2.536-.73-4.11 0-.635-.046-.874-.176-.874-.047 0-.11.052-.14.114zM23.146 21.219c-.047.12.02.187.192.187.136 0 .157-.015.141-.12-.02-.14-.286-.198-.333-.067zM22.667 24.74c-.271.057-.323.088-.323.187 0 .313 1.86.365 2.052.057.041-.062.041-.114 0-.182-.052-.078-.156-.088-.781-.099-.396 0-.823.016-.948.037zM14.818 29.948a.076.076 0 00.026.104c.156.1 3.948.183 4.041.089.13-.13-.453-.188-2.38-.224-1.302-.032-1.656-.026-1.687.031zM17.578 30.828c-.687.016-1.281.052-1.312.073-.188.12.026.14 1.547.14 1.593 0 2.161-.046 2.12-.171-.021-.073-.542-.084-2.355-.042zM22.526 43.698c-.167.062-.245.187-.224.349.01.114.068.172.25.27.219.115.25.12.39.053.131-.063.157-.11.173-.292.015-.203 0-.23-.157-.328-.182-.11-.265-.12-.432-.052zM34.146 43.422a2.764 2.764 0 00-.057.354c-.047.354-.151.76-.396 1.557a13.41 13.41 0 00-.584 3.86l-.01.78h.417l.026-.91.026-.912.213-.287c.323-.437.901-1.38 1.079-1.76.192-.412.25-.823.12-.875-.13-.052-.23.062-.459.52-.286.579-.615 1.126-.672 1.126-.078 0 .005-.386.302-1.433.39-1.37.438-2.109.12-2.109a.143.143 0 00-.125.089zM10.98 43.755c-.053.026-.095.083-.095.125 0 .099-.161.182-.348.182a.506.506 0 00-.22.047c-.114.073.022.12.324.104l.27-.015.058.359c.15.917.224 3.307.13 4.401l-.031.39-.177.027c-.245.036-.266.14-.037.182.167.031.183.057.198.23.016.187.016.187.281.202l.266.016.037-.214c.026-.161.057-.208.135-.208.057 0 .104.037.104.078 0 .104.177.1.266-.005.067-.078.234-.083 1.713-.063 1.63.032 2.516-.005 2.615-.104.083-.083-.224-.104-2.25-.166a115.832 115.832 0 01-1.86-.073c-.01-.005.047-.14.13-.297l.141-.281 1.964-.026c1.77-.026 2.099-.047 2.01-.13-.052-.053-1.61-.13-2.708-.13-.625 0-1.136-.022-1.136-.043 0-.02.053-.182.12-.349l.12-.312.469-.016c1.12-.03 2.818-.161 2.948-.218.161-.078.146-.167-.026-.136-.063.016-.828.042-1.698.058l-1.583.03.03-.15c.042-.209-.057-.339-.25-.313-.124.01-.176.063-.28.266-.115.229-.136.245-.323.245-.11 0-.204-.016-.204-.032 0-.052.209-.76.271-.921.042-.105.089-.141.193-.141.073 0 .614-.042 1.203-.084a119.65 119.65 0 011.677-.12c.584-.03.73-.062.646-.15-.052-.052-1.474-.047-2.594.01-.687.037-.927.031-.927-.01 0-.037.063-.214.136-.396l.13-.333 1.443-.026c1.458-.032 2.39-.1 2.541-.183.052-.026-.677-.062-1.86-.083-1.067-.02-1.952-.047-1.963-.057-.015-.01.006-.094.032-.183.078-.218.03-.323-.141-.302-.104.01-.172.078-.281.287l-.146.276h-.922l-.031-.198c-.016-.104-.042-.302-.063-.438l-.031-.24 2.906-.02c2.818-.02 3.292-.047 3.089-.177-.042-.026-1.37-.052-3.078-.057-2.662-.006-3.021-.016-3.094-.089-.094-.099-.12-.099-.24-.026zm1.364 1.526c0 .01-.078.203-.172.432-.167.38-.188.407-.349.422-.224.021-.26-.041-.26-.5v-.375h.39c.214 0 .39.01.39.021zm-.469 1.156c0 .016-.036.162-.083.323-.073.24-.094.276-.13.193a1.23 1.23 0 01-.042-.328c-.005-.198.005-.219.125-.219.073 0 .13.016.13.031zm.516 1.36c0 .052-.042.208-.089.354-.078.234-.104.26-.255.276-.136.015-.172 0-.172-.078 0-.084.073-.396.13-.578.016-.032.104-.063.209-.063.14 0 .182.02.177.089zm-.255.937c0 .026-.047.156-.1.302-.072.193-.13.266-.213.276-.11.021-.115.005-.078-.26.047-.35.052-.354.24-.354.083 0 .15.015.15.036z" fill="#fff"/></svg>