<svg width="55" height="55" fill="none" xmlns="http://www.w3.org/2000/svg"><g filter="url(#filter0_d)" clip-path="url(#clip0)"><path d="M28 2C14.193 2 3 13.193 3 27c0 13.808 11.193 25 25 25 13.808 0 25-11.192 25-25C53 13.194 41.808 2.001 28 2.001V2zm11.465 36.057a1.557 1.557 0 01-2.144.517c-5.87-3.586-13.259-4.398-21.96-2.41a1.559 1.559 0 01-.694-3.038c9.523-2.177 17.691-1.24 24.281 2.788.734.45.967 1.409.517 2.143zm3.06-6.808a1.949 1.949 0 01-2.681.644c-6.72-4.132-16.964-5.328-24.912-2.915a1.952 1.952 0 01-2.433-1.299 1.952 1.952 0 011.3-2.431c9.08-2.755 20.367-1.42 28.084 3.322a1.948 1.948 0 01.642 2.68zm.262-7.088c-8.057-4.786-21.35-5.226-29.044-2.891a2.338 2.338 0 11-1.357-4.475c8.83-2.681 23.511-2.163 32.788 3.344a2.336 2.336 0 01.818 3.204 2.336 2.336 0 01-3.203.818h-.002z" fill="#fff"/></g><defs><clipPath id="clip0"><path fill="#fff" d="M0 0h55v55H0z"/></clipPath><filter id="filter0_d" x="-1" y="2" width="58" height="58" filterUnits="userSpaceOnUse" color-interpolation-filters="sRGB"><feFlood flood-opacity="0" result="BackgroundImageFix"/><feColorMatrix in="SourceAlpha" values="0 0 0 0 0 0 0 0 0 0 0 0 0 0 0 0 0 0 127 0"/><feOffset dy="4"/><feGaussianBlur stdDeviation="2"/><feColorMatrix values="0 0 0 0 0 0 0 0 0 0 0 0 0 0 0 0 0 0 0.25 0"/><feBlend in2="BackgroundImageFix" result="effect1_dropShadow"/><feBlend in="SourceGraphic" in2="effect1_dropShadow" result="shape"/></filter></defs></svg>