<svg width="58" height="55" viewBox="0 0 58 55" fill="none" xmlns="http://www.w3.org/2000/svg">
<g filter="url(#filter0_d)">
<path d="M6.34375 6.25C5.05156 6.25 4 7.30156 4 8.59375V36.7188C4 38.0109 5.05156 39.0625 6.34375 39.0625H24.3125V42.1875H22.4814C21.4377 42.1875 20.4571 42.5944 19.7196 43.3319L17.5101 45.5414C17.2867 45.7648 17.2197 46.1006 17.3408 46.3928C17.4611 46.685 17.7469 46.875 18.0625 46.875H39.9375C40.2531 46.875 40.5389 46.685 40.6592 46.3928C40.7803 46.1006 40.7133 45.7648 40.4899 45.5414L38.2804 43.3319C37.5429 42.5944 36.5623 42.1875 35.5186 42.1875H33.6875V39.0625H51.6562C52.9484 39.0625 54 38.0109 54 36.7188V8.59375C54 7.30156 52.9484 6.25 51.6562 6.25H6.34375ZM6.34375 7.8125H51.6562C52.0875 7.8125 52.4375 8.1625 52.4375 8.59375V32.8125H50.0938C49.6617 32.8125 49.3125 33.1617 49.3125 33.5938C49.3125 34.0258 49.6617 34.375 50.0938 34.375H52.4375V36.7188C52.4375 37.15 52.0875 37.5 51.6562 37.5H33.6875H24.3125H6.34375C5.9125 37.5 5.5625 37.15 5.5625 36.7188V34.375H34.5328C34.9649 34.375 35.3141 34.0258 35.3141 33.5938C35.3141 33.1617 34.9649 32.8125 34.5328 32.8125H5.5625V8.59375C5.5625 8.1625 5.9125 7.8125 6.34375 7.8125ZM7.90625 9.375C7.47422 9.375 7.125 9.72422 7.125 10.1562C7.125 10.5883 7.47422 10.9375 7.90625 10.9375H43.8438C44.2758 10.9375 44.625 10.5883 44.625 10.1562C44.625 9.72422 44.2758 9.375 43.8438 9.375H7.90625ZM46.9688 9.375C46.5367 9.375 46.1875 9.72422 46.1875 10.1562C46.1875 10.5883 46.5367 10.9375 46.9688 10.9375H50.0938C50.5258 10.9375 50.875 10.5883 50.875 10.1562C50.875 9.72422 50.5258 9.375 50.0938 9.375H46.9688ZM24.3018 13.0951C24.0319 13.092 23.7606 13.1605 23.5114 13.3011C23.0153 13.5816 22.7195 14.0903 22.7195 14.6606V29.0909C22.7195 29.6612 23.0153 30.17 23.5114 30.4504C23.7544 30.5879 24.0179 30.6564 24.282 30.6564C24.5585 30.6564 24.8346 30.5813 25.0846 30.4321L37.1345 23.2162C37.6102 22.9319 37.8943 22.4312 37.8943 21.8765C37.8943 21.3218 37.6102 20.8189 37.1345 20.5338L25.0846 13.3194C24.8401 13.1733 24.5717 13.0982 24.3018 13.0951ZM24.2835 14.6606L36.3334 21.875L24.2835 29.0939V14.6606ZM38.375 32.0312C37.943 32.0312 37.5938 32.3805 37.5938 32.8125V34.375C37.5938 34.807 37.943 35.1562 38.375 35.1562C38.807 35.1562 39.1562 34.807 39.1562 34.375V32.8125C39.1562 32.3805 38.807 32.0312 38.375 32.0312ZM42.2812 32.0312C41.8492 32.0312 41.5 32.3805 41.5 32.8125V34.375C41.5 34.807 41.8492 35.1562 42.2812 35.1562C42.7133 35.1562 43.0625 34.807 43.0625 34.375V32.8125C43.0625 32.3805 42.7133 32.0312 42.2812 32.0312ZM46.1875 32.0312C45.7555 32.0312 45.4062 32.3805 45.4062 32.8125V34.375C45.4062 34.807 45.7555 35.1562 46.1875 35.1562C46.6195 35.1562 46.9688 34.807 46.9688 34.375V32.8125C46.9688 32.3805 46.6195 32.0312 46.1875 32.0312ZM25.875 39.0625H32.125V42.1875H25.875V39.0625ZM22.4814 43.75H24.3125H33.6875H35.5186C36.1451 43.75 36.7335 43.9937 37.1757 44.4366L38.0515 45.3125H19.9485L20.8243 44.4366C21.2673 43.9937 21.8549 43.75 22.4814 43.75Z" fill="white"/>
</g>
<defs>
<filter id="filter0_d" x="0" y="0" width="58" height="58" filterUnits="userSpaceOnUse" color-interpolation-filters="sRGB">
<feFlood flood-opacity="0" result="BackgroundImageFix"/>
<feColorMatrix in="SourceAlpha" type="matrix" values="0 0 0 0 0 0 0 0 0 0 0 0 0 0 0 0 0 0 127 0" result="hardAlpha"/>
<feOffset dy="4"/>
<feGaussianBlur stdDeviation="2"/>
<feColorMatrix type="matrix" values="0 0 0 0 0 0 0 0 0 0 0 0 0 0 0 0 0 0 0.25 0"/>
<feBlend mode="normal" in2="BackgroundImageFix" result="effect1_dropShadow"/>
<feBlend mode="normal" in="SourceGraphic" in2="effect1_dropShadow" result="shape"/>
</filter>
</defs>
</svg>
